<?xml version="1.0" standalone="no"?>
<!DOCTYPE svg PUBLIC "-//W3C//DTD SVG 20010904//EN"
 "http://www.w3.org/TR/2001/REC-SVG-20010904/DTD/svg10.dtd">
<svg version="1.0" xmlns="http://www.w3.org/2000/svg"
 width="700.000000pt" height="700.000000pt" viewBox="0 0 700.000000 700.000000"
 preserveAspectRatio="xMidYMid meet">
<metadata>
Created by potrace 1.11, written by Peter Selinger 2001-2013
</metadata>
<g transform="translate(0.000000,700.000000) scale(0.100000,-0.100000)"
fill="#000000" stroke="none">
<path d="M3278 6995 c-2 -1 -39 -5 -83 -9 -112 -8 -267 -30 -365 -51 -14 -3
-36 -7 -50 -9 -14 -2 -72 -16 -130 -31 -509 -129 -983 -371 -1390 -708 -80
-67 -340 -321 -405 -397 -25 -29 -73 -89 -138 -170 -73 -92 -196 -280 -271
-414 -153 -274 -265 -554 -340 -851 -21 -84 -32 -138 -61 -295 -1 -8 -6 -37
-9 -65 -4 -27 -9 -66 -11 -85 -27 -200 -27 -678 -1 -817 2 -10 7 -43 10 -74 4
-31 9 -67 11 -80 3 -13 7 -38 9 -54 17 -125 155 -616 186 -660 4 -5 17 -37 30
-70 28 -73 160 -339 195 -394 14 -23 25 -45 25 -51 0 -5 5 -10 10 -10 6 0 10
-5 10 -10 0 -13 121 -195 202 -303 222 -294 548 -599 864 -806 143 -94 140
-92 253 -155 68 -38 244 -122 336 -161 140 -60 450 -158 569 -181 12 -2 55
-10 96 -19 83 -16 116 -22 175 -30 22 -2 56 -7 75 -10 199 -28 652 -27 850 1
683 97 1246 337 1758 747 130 104 376 341 474 457 403 477 670 1041 782 1650
8 47 18 110 21 140 4 30 8 61 10 68 26 79 26 710 0 837 -2 11 -7 40 -10 65 -3
25 -7 56 -10 70 -3 14 -8 41 -11 60 -8 54 -54 262 -64 290 -4 14 -18 59 -30
100 -187 629 -565 1207 -1080 1650 -41 36 -77 67 -80 70 -13 14 -195 145 -275
197 -400 265 -900 459 -1360 529 -27 4 -52 8 -55 9 -3 1 -41 5 -85 10 -44 4
-89 10 -100 12 -24 4 -532 12 -537 8z"/>
</g>
</svg>
