<?xml version="1.0" standalone="no"?>
<!DOCTYPE svg PUBLIC "-//W3C//DTD SVG 20010904//EN"
 "http://www.w3.org/TR/2001/REC-SVG-20010904/DTD/svg10.dtd">
<svg version="1.0" xmlns="http://www.w3.org/2000/svg"
 width="700.000000pt" height="700.000000pt" viewBox="0 0 700.000000 700.000000"
 preserveAspectRatio="xMidYMid meet">
<metadata>
Created by potrace 1.11, written by Peter Selinger 2001-2013
</metadata>
<g transform="translate(0.000000,700.000000) scale(0.100000,-0.100000)"
fill="#000000" stroke="none">
<path d="M3278 6994 c-2 -1 -39 -5 -83 -9 -98 -7 -164 -16 -245 -30 -8 -1 -35
-6 -60 -10 -25 -4 -52 -9 -60 -10 -221 -46 -385 -94 -601 -176 -144 -54 -441
-204 -584 -294 -93 -59 -339 -235 -355 -254 -3 -4 -48 -43 -100 -88 -154 -132
-383 -376 -463 -493 -17 -25 -37 -51 -45 -59 -22 -23 -164 -239 -214 -326
-109 -192 -208 -410 -279 -615 -36 -105 -94 -308 -106 -370 -2 -14 -11 -61
-20 -105 -8 -44 -17 -91 -19 -105 -2 -14 -8 -56 -13 -95 -26 -180 -35 -583
-18 -760 75 -769 361 -1429 868 -2010 123 -141 227 -241 433 -417 41 -34 238
-174 303 -214 43 -27 80 -52 81 -56 2 -5 7 -8 12 -8 4 0 37 -16 72 -36 241
-138 552 -265 833 -340 72 -19 320 -69 395 -79 19 -3 49 -7 65 -9 155 -21 557
-28 720 -13 130 12 190 19 195 22 3 2 30 6 60 10 30 4 87 13 125 22 39 8 84
17 100 20 57 9 331 92 440 133 307 114 610 279 885 483 52 39 97 74 100 77 3
3 39 34 80 69 541 464 940 1108 1112 1796 16 66 31 127 33 135 30 153 49 280
62 425 15 152 6 645 -12 715 -2 8 -7 39 -10 69 -4 30 -8 61 -10 70 -1 9 -10
57 -19 106 -78 424 -275 902 -526 1274 -54 82 -184 257 -200 271 -3 3 -40 46
-82 95 -253 300 -630 596 -1010 794 -415 217 -828 339 -1313 387 -66 6 -522
14 -527 8z"/>
</g>
</svg>
